# xmcd CD database file generated by MAGIX-FreeDB- v3.0beta1
#
# Track frame offsets:
#	182
#	20267
#	46472
#	67090
#	86582
#	104122
#	125985
#	150162
#	171385
#	195705
#	210372
#	235780
#	260490
#	281677
#	300067
#	332872
#
# Disc length: 4689
#
# Revision: 25
# Processed by: cddbd v1.5.2PL0 Copyright (c) Steve Scherf et al.
# Submitted via: MAGIX-FreeDB- v3.0beta1
#
DISCID=e1124f10
DTITLE=Zucchero - Zucchero - Greatest Hits
DYEAR=1997
DGENRE=Rock
TTITLE0=Senza una donna (Without a woman)
TTITLE1=Diamante
TTITLE2=Wonderful world
TTITLE3=My love
TTITLE4=She's my baby
TTITLE5=Nothing to lose
TTITLE6=I won't be lonely tonight
TTITLE7=I don't know
TTITLE8=Overdose (d'amore)
TTITLE9=X colpa di chi?
TTITLE10=Dunes of mercy
TTITLE11=The promise
TTITLE12=Con le mani
TTITLE13=Diavolo in me
TTITLE14=Mama (Madre dolcissima)
TTITLE15=Va, Pensiero (Bonus Track)
EXTD=YEAR: 1997
EXTT0=YEAR: 1997
EXTT1=YEAR: 1997
EXTT2=YEAR: 1997
EXTT3=YEAR: 1997
EXTT4=YEAR: 1997
EXTT5=YEAR: 1997
EXTT6=YEAR: 1997
EXTT7=YEAR: 1997
EXTT8=YEAR: 1997
EXTT9=YEAR: 1997
EXTT10=YEAR: 1997
EXTT11=YEAR: 1997
EXTT12=YEAR: 1997
EXTT13=YEAR: 1997
EXTT14=YEAR: 1997
EXTT15=YEAR: 1997
PLAYORDER=
